G04 #@! TF.GenerationSoftware,KiCad,Pcbnew,(5.1.0)-1*
G04 #@! TF.CreationDate,2019-09-02T23:35:44-05:00*
G04 #@! TF.ProjectId,Current_Sense_Nano,43757272-656e-4745-9f53-656e73655f4e,v01*
G04 #@! TF.SameCoordinates,Original*
G04 #@! TF.FileFunction,Copper,L2,Bot*
G04 #@! TF.FilePolarity,Positive*
%FSLAX46Y46*%
G04 Gerber Fmt 4.6, Leading zero omitted, Abs format (unit mm)*
G04 Created by KiCad (PCBNEW (5.1.0)-1) date 2019-09-02 23:35:44*
%MOMM*%
%LPD*%
G04 APERTURE LIST*
%ADD10C,0.100000*%
%ADD11O,1.700000X1.700000*%
%ADD12R,1.700000X1.700000*%
%ADD13C,5.000000*%
%ADD14R,8.000000X5.000000*%
%ADD15C,0.500000*%
%ADD16C,2.650000*%
%ADD17R,2.650000X2.650000*%
%ADD18C,0.914400*%
%ADD19C,0.254000*%
%ADD20C,0.508000*%
G04 APERTURE END LIST*
D10*
G36*
X141840000Y-128570000D02*
G01*
X141340000Y-128570000D01*
X141340000Y-127970000D01*
X141840000Y-127970000D01*
X141840000Y-128570000D01*
G37*
D11*
X140970000Y-132080000D03*
X138430000Y-132080000D03*
X135890000Y-132080000D03*
X133350000Y-132080000D03*
X130810000Y-132080000D03*
D12*
X128270000Y-132080000D03*
D13*
X134874000Y-124206000D03*
D14*
X130874000Y-124206000D03*
X130874000Y-118110000D03*
D13*
X134874000Y-118110000D03*
X152146000Y-118110000D03*
D14*
X156146000Y-118110000D03*
X156146000Y-124206000D03*
D13*
X152146000Y-124206000D03*
X152146000Y-130302000D03*
D14*
X156146000Y-130302000D03*
D15*
X142240000Y-128270000D03*
D10*
G36*
X142240000Y-127520602D02*
G01*
X142264534Y-127520602D01*
X142313365Y-127525412D01*
X142361490Y-127534984D01*
X142408445Y-127549228D01*
X142453778Y-127568005D01*
X142497051Y-127591136D01*
X142537850Y-127618396D01*
X142575779Y-127649524D01*
X142610476Y-127684221D01*
X142641604Y-127722150D01*
X142668864Y-127762949D01*
X142691995Y-127806222D01*
X142710772Y-127851555D01*
X142725016Y-127898510D01*
X142734588Y-127946635D01*
X142739398Y-127995466D01*
X142739398Y-128020000D01*
X142740000Y-128020000D01*
X142740000Y-128520000D01*
X142739398Y-128520000D01*
X142739398Y-128544534D01*
X142734588Y-128593365D01*
X142725016Y-128641490D01*
X142710772Y-128688445D01*
X142691995Y-128733778D01*
X142668864Y-128777051D01*
X142641604Y-128817850D01*
X142610476Y-128855779D01*
X142575779Y-128890476D01*
X142537850Y-128921604D01*
X142497051Y-128948864D01*
X142453778Y-128971995D01*
X142408445Y-128990772D01*
X142361490Y-129005016D01*
X142313365Y-129014588D01*
X142264534Y-129019398D01*
X142240000Y-129019398D01*
X142240000Y-129020000D01*
X141740000Y-129020000D01*
X141740000Y-127520000D01*
X142240000Y-127520000D01*
X142240000Y-127520602D01*
X142240000Y-127520602D01*
G37*
D15*
X140940000Y-128270000D03*
D10*
G36*
X141440000Y-129020000D02*
G01*
X140940000Y-129020000D01*
X140940000Y-129019398D01*
X140915466Y-129019398D01*
X140866635Y-129014588D01*
X140818510Y-129005016D01*
X140771555Y-128990772D01*
X140726222Y-128971995D01*
X140682949Y-128948864D01*
X140642150Y-128921604D01*
X140604221Y-128890476D01*
X140569524Y-128855779D01*
X140538396Y-128817850D01*
X140511136Y-128777051D01*
X140488005Y-128733778D01*
X140469228Y-128688445D01*
X140454984Y-128641490D01*
X140445412Y-128593365D01*
X140440602Y-128544534D01*
X140440602Y-128520000D01*
X140440000Y-128520000D01*
X140440000Y-128020000D01*
X140440602Y-128020000D01*
X140440602Y-127995466D01*
X140445412Y-127946635D01*
X140454984Y-127898510D01*
X140469228Y-127851555D01*
X140488005Y-127806222D01*
X140511136Y-127762949D01*
X140538396Y-127722150D01*
X140569524Y-127684221D01*
X140604221Y-127649524D01*
X140642150Y-127618396D01*
X140682949Y-127591136D01*
X140726222Y-127568005D01*
X140771555Y-127549228D01*
X140818510Y-127534984D01*
X140866635Y-127525412D01*
X140915466Y-127520602D01*
X140940000Y-127520602D01*
X140940000Y-127520000D01*
X141440000Y-127520000D01*
X141440000Y-129020000D01*
X141440000Y-129020000D01*
G37*
D16*
X136610000Y-111400000D03*
X141210000Y-111400000D03*
X145810000Y-111400000D03*
X150410000Y-111400000D03*
X150410000Y-104500000D03*
X145810000Y-104500000D03*
D17*
X136610000Y-104500000D03*
D16*
X141210000Y-104500000D03*
D18*
X146431000Y-114554000D03*
X148971000Y-132080000D03*
X143510000Y-132080000D03*
X141859000Y-121412000D03*
X141859000Y-122936000D03*
X140208000Y-113411000D03*
X132080000Y-130556000D03*
X136398000Y-114554000D03*
X147447000Y-127508000D03*
X132080000Y-127889000D03*
X145542000Y-118618000D03*
X144272000Y-118618000D03*
X138684000Y-123444000D03*
X141732000Y-119380000D03*
D19*
X141859000Y-123571000D02*
X141859000Y-122936000D01*
X133350000Y-132080000D02*
X141859000Y-123571000D01*
X142316199Y-122478801D02*
X141859000Y-122936000D01*
X142697201Y-122097799D02*
X142316199Y-122478801D01*
X142697201Y-117398799D02*
X142697201Y-122097799D01*
X144018000Y-116078000D02*
X142697201Y-117398799D01*
X152146000Y-118110000D02*
X150114000Y-116078000D01*
X150114000Y-116078000D02*
X144018000Y-116078000D01*
X141859000Y-121412000D02*
X140208000Y-119761000D01*
X140208000Y-119761000D02*
X140208000Y-113411000D01*
D20*
X141210000Y-106373832D02*
X141210000Y-111400000D01*
X141210000Y-104500000D02*
X141210000Y-106373832D01*
D19*
X145542000Y-123698000D02*
X152146000Y-130302000D01*
X145542000Y-118618000D02*
X145542000Y-123698000D01*
X144526000Y-117602000D02*
X145542000Y-118618000D01*
X143764000Y-117602000D02*
X144526000Y-117602000D01*
X143383000Y-117983000D02*
X143764000Y-117602000D01*
X143383000Y-123868566D02*
X143383000Y-117983000D01*
X138430000Y-132080000D02*
X138430000Y-128821566D01*
X138430000Y-128821566D02*
X143383000Y-123868566D01*
X140970000Y-128382000D02*
X141082000Y-128270000D01*
X140970000Y-128300000D02*
X140940000Y-128270000D01*
X140970000Y-132080000D02*
X140970000Y-128300000D01*
X143764000Y-126492000D02*
X144272000Y-125984000D01*
X141478000Y-126492000D02*
X143764000Y-126492000D01*
X140940000Y-128270000D02*
X140940000Y-127030000D01*
X140940000Y-127030000D02*
X141478000Y-126492000D01*
X144272000Y-118618000D02*
X144272000Y-119380000D01*
X144272000Y-125984000D02*
X144272000Y-119380000D01*
X144272000Y-119380000D02*
X144272000Y-119126000D01*
D20*
X138684000Y-113474000D02*
X136610000Y-111400000D01*
X138684000Y-123444000D02*
X138684000Y-113474000D01*
X136610000Y-104500000D02*
X136610000Y-111400000D01*
X141732000Y-115478000D02*
X145810000Y-111400000D01*
X141732000Y-119380000D02*
X141732000Y-115478000D01*
X145810000Y-104500000D02*
X145810000Y-111400000D01*
D19*
G36*
X145007678Y-119269073D02*
G01*
X145034000Y-119286661D01*
X145034001Y-123673046D01*
X145031543Y-123698000D01*
X145035876Y-123741989D01*
X145041352Y-123797585D01*
X145041628Y-123798494D01*
X145070400Y-123893343D01*
X145117571Y-123981595D01*
X145154338Y-124026395D01*
X145181053Y-124058948D01*
X145200430Y-124074850D01*
X149781156Y-128655577D01*
X149592891Y-128937335D01*
X149375715Y-129461643D01*
X149265000Y-130018246D01*
X149265000Y-130585754D01*
X149375715Y-131142357D01*
X149592891Y-131666665D01*
X149908181Y-132138530D01*
X150309470Y-132539819D01*
X150781335Y-132855109D01*
X150995936Y-132944000D01*
X141853408Y-132944000D01*
X141998491Y-132767216D01*
X142112798Y-132553363D01*
X142183188Y-132321318D01*
X142206956Y-132080000D01*
X142183188Y-131838682D01*
X142112798Y-131606637D01*
X141998491Y-131392784D01*
X141844660Y-131205340D01*
X141657216Y-131051509D01*
X141478000Y-130955716D01*
X141478000Y-129540000D01*
X141795500Y-129540000D01*
X141820276Y-129537560D01*
X141844101Y-129530333D01*
X141866057Y-129518597D01*
X141885303Y-129502803D01*
X141901097Y-129483557D01*
X141912833Y-129461601D01*
X141920060Y-129437776D01*
X141922500Y-129413000D01*
X141922500Y-128941179D01*
X141948368Y-128933369D01*
X141982725Y-128923257D01*
X141983908Y-128922638D01*
X141985188Y-128922252D01*
X142016850Y-128905417D01*
X142048622Y-128888807D01*
X142049663Y-128887970D01*
X142050842Y-128887343D01*
X142078605Y-128864700D01*
X142106572Y-128842214D01*
X142107431Y-128841190D01*
X142108466Y-128840346D01*
X142131311Y-128812731D01*
X142154368Y-128785252D01*
X142155012Y-128784081D01*
X142155863Y-128783052D01*
X142172894Y-128751554D01*
X142176500Y-128744995D01*
X142176500Y-129413000D01*
X142178940Y-129437776D01*
X142186167Y-129461601D01*
X142197903Y-129483557D01*
X142213697Y-129502803D01*
X142232943Y-129518597D01*
X142254899Y-129530333D01*
X142278724Y-129537560D01*
X142303500Y-129540000D01*
X143129000Y-129540000D01*
X143153776Y-129537560D01*
X143177601Y-129530333D01*
X143199557Y-129518597D01*
X143218803Y-129502803D01*
X143234597Y-129483557D01*
X143246333Y-129461601D01*
X143253560Y-129437776D01*
X143256000Y-129413000D01*
X143256000Y-128587500D01*
X143253560Y-128562724D01*
X143246333Y-128538899D01*
X143234597Y-128516943D01*
X143218803Y-128497697D01*
X143199557Y-128481903D01*
X143177601Y-128470167D01*
X143153776Y-128462940D01*
X143129000Y-128460500D01*
X142303500Y-128460500D01*
X142278724Y-128462940D01*
X142254899Y-128470167D01*
X142232943Y-128481903D01*
X142221000Y-128491704D01*
X142221000Y-128079500D01*
X143129000Y-128079500D01*
X143153776Y-128077060D01*
X143177601Y-128069833D01*
X143199557Y-128058097D01*
X143218803Y-128042303D01*
X143234597Y-128023057D01*
X143246333Y-128001101D01*
X143253560Y-127977276D01*
X143256000Y-127952500D01*
X143256000Y-127127000D01*
X143253560Y-127102224D01*
X143246333Y-127078399D01*
X143234597Y-127056443D01*
X143218803Y-127037197D01*
X143199557Y-127021403D01*
X143177601Y-127009667D01*
X143153776Y-127002440D01*
X143129000Y-127000000D01*
X143739056Y-127000000D01*
X143764000Y-127002457D01*
X143788944Y-127000000D01*
X143788947Y-127000000D01*
X143863585Y-126992649D01*
X143959343Y-126963601D01*
X144047595Y-126916429D01*
X144124948Y-126852948D01*
X144140855Y-126833566D01*
X144613570Y-126360851D01*
X144632948Y-126344948D01*
X144672579Y-126296657D01*
X144696429Y-126267596D01*
X144743600Y-126179345D01*
X144743601Y-126179342D01*
X144772649Y-126083585D01*
X144780000Y-126008947D01*
X144780000Y-126008945D01*
X144782457Y-125984001D01*
X144780000Y-125959057D01*
X144780000Y-119286661D01*
X144806322Y-119269073D01*
X144907000Y-119168395D01*
X145007678Y-119269073D01*
X145007678Y-119269073D01*
G37*
X145007678Y-119269073D02*
X145034000Y-119286661D01*
X145034001Y-123673046D01*
X145031543Y-123698000D01*
X145035876Y-123741989D01*
X145041352Y-123797585D01*
X145041628Y-123798494D01*
X145070400Y-123893343D01*
X145117571Y-123981595D01*
X145154338Y-124026395D01*
X145181053Y-124058948D01*
X145200430Y-124074850D01*
X149781156Y-128655577D01*
X149592891Y-128937335D01*
X149375715Y-129461643D01*
X149265000Y-130018246D01*
X149265000Y-130585754D01*
X149375715Y-131142357D01*
X149592891Y-131666665D01*
X149908181Y-132138530D01*
X150309470Y-132539819D01*
X150781335Y-132855109D01*
X150995936Y-132944000D01*
X141853408Y-132944000D01*
X141998491Y-132767216D01*
X142112798Y-132553363D01*
X142183188Y-132321318D01*
X142206956Y-132080000D01*
X142183188Y-131838682D01*
X142112798Y-131606637D01*
X141998491Y-131392784D01*
X141844660Y-131205340D01*
X141657216Y-131051509D01*
X141478000Y-130955716D01*
X141478000Y-129540000D01*
X141795500Y-129540000D01*
X141820276Y-129537560D01*
X141844101Y-129530333D01*
X141866057Y-129518597D01*
X141885303Y-129502803D01*
X141901097Y-129483557D01*
X141912833Y-129461601D01*
X141920060Y-129437776D01*
X141922500Y-129413000D01*
X141922500Y-128941179D01*
X141948368Y-128933369D01*
X141982725Y-128923257D01*
X141983908Y-128922638D01*
X141985188Y-128922252D01*
X142016850Y-128905417D01*
X142048622Y-128888807D01*
X142049663Y-128887970D01*
X142050842Y-128887343D01*
X142078605Y-128864700D01*
X142106572Y-128842214D01*
X142107431Y-128841190D01*
X142108466Y-128840346D01*
X142131311Y-128812731D01*
X142154368Y-128785252D01*
X142155012Y-128784081D01*
X142155863Y-128783052D01*
X142172894Y-128751554D01*
X142176500Y-128744995D01*
X142176500Y-129413000D01*
X142178940Y-129437776D01*
X142186167Y-129461601D01*
X142197903Y-129483557D01*
X142213697Y-129502803D01*
X142232943Y-129518597D01*
X142254899Y-129530333D01*
X142278724Y-129537560D01*
X142303500Y-129540000D01*
X143129000Y-129540000D01*
X143153776Y-129537560D01*
X143177601Y-129530333D01*
X143199557Y-129518597D01*
X143218803Y-129502803D01*
X143234597Y-129483557D01*
X143246333Y-129461601D01*
X143253560Y-129437776D01*
X143256000Y-129413000D01*
X143256000Y-128587500D01*
X143253560Y-128562724D01*
X143246333Y-128538899D01*
X143234597Y-128516943D01*
X143218803Y-128497697D01*
X143199557Y-128481903D01*
X143177601Y-128470167D01*
X143153776Y-128462940D01*
X143129000Y-128460500D01*
X142303500Y-128460500D01*
X142278724Y-128462940D01*
X142254899Y-128470167D01*
X142232943Y-128481903D01*
X142221000Y-128491704D01*
X142221000Y-128079500D01*
X143129000Y-128079500D01*
X143153776Y-128077060D01*
X143177601Y-128069833D01*
X143199557Y-128058097D01*
X143218803Y-128042303D01*
X143234597Y-128023057D01*
X143246333Y-128001101D01*
X143253560Y-127977276D01*
X143256000Y-127952500D01*
X143256000Y-127127000D01*
X143253560Y-127102224D01*
X143246333Y-127078399D01*
X143234597Y-127056443D01*
X143218803Y-127037197D01*
X143199557Y-127021403D01*
X143177601Y-127009667D01*
X143153776Y-127002440D01*
X143129000Y-127000000D01*
X143739056Y-127000000D01*
X143764000Y-127002457D01*
X143788944Y-127000000D01*
X143788947Y-127000000D01*
X143863585Y-126992649D01*
X143959343Y-126963601D01*
X144047595Y-126916429D01*
X144124948Y-126852948D01*
X144140855Y-126833566D01*
X144613570Y-126360851D01*
X144632948Y-126344948D01*
X144672579Y-126296657D01*
X144696429Y-126267596D01*
X144743600Y-126179345D01*
X144743601Y-126179342D01*
X144772649Y-126083585D01*
X144780000Y-126008947D01*
X144780000Y-126008945D01*
X144782457Y-125984001D01*
X144780000Y-125959057D01*
X144780000Y-119286661D01*
X144806322Y-119269073D01*
X144907000Y-119168395D01*
X145007678Y-119269073D01*
G36*
X159614000Y-115227157D02*
G01*
X152146000Y-115227157D01*
X152127287Y-115229000D01*
X151862246Y-115229000D01*
X151305643Y-115339715D01*
X150781335Y-115556891D01*
X150499576Y-115745156D01*
X150490855Y-115736435D01*
X150474948Y-115717052D01*
X150397595Y-115653571D01*
X150309343Y-115606399D01*
X150213585Y-115577351D01*
X150138947Y-115570000D01*
X150138944Y-115570000D01*
X150114000Y-115567543D01*
X150089056Y-115570000D01*
X144042944Y-115570000D01*
X144018000Y-115567543D01*
X143993056Y-115570000D01*
X143993053Y-115570000D01*
X143918415Y-115577351D01*
X143822657Y-115606399D01*
X143734405Y-115653571D01*
X143657052Y-115717052D01*
X143641145Y-115736435D01*
X142367000Y-117010580D01*
X142367000Y-115741024D01*
X145139283Y-112968742D01*
X145312378Y-113040440D01*
X145641974Y-113106000D01*
X145978026Y-113106000D01*
X146307622Y-113040440D01*
X146618094Y-112911838D01*
X146897512Y-112725137D01*
X147135137Y-112487512D01*
X147321838Y-112208094D01*
X147450440Y-111897622D01*
X147516000Y-111568026D01*
X147516000Y-111231974D01*
X148704000Y-111231974D01*
X148704000Y-111568026D01*
X148769560Y-111897622D01*
X148898162Y-112208094D01*
X149084863Y-112487512D01*
X149322488Y-112725137D01*
X149601906Y-112911838D01*
X149912378Y-113040440D01*
X150241974Y-113106000D01*
X150578026Y-113106000D01*
X150907622Y-113040440D01*
X151218094Y-112911838D01*
X151497512Y-112725137D01*
X151735137Y-112487512D01*
X151921838Y-112208094D01*
X152050440Y-111897622D01*
X152116000Y-111568026D01*
X152116000Y-111231974D01*
X152050440Y-110902378D01*
X151921838Y-110591906D01*
X151735137Y-110312488D01*
X151497512Y-110074863D01*
X151218094Y-109888162D01*
X150907622Y-109759560D01*
X150578026Y-109694000D01*
X150241974Y-109694000D01*
X149912378Y-109759560D01*
X149601906Y-109888162D01*
X149322488Y-110074863D01*
X149084863Y-110312488D01*
X148898162Y-110591906D01*
X148769560Y-110902378D01*
X148704000Y-111231974D01*
X147516000Y-111231974D01*
X147450440Y-110902378D01*
X147321838Y-110591906D01*
X147135137Y-110312488D01*
X146897512Y-110074863D01*
X146618094Y-109888162D01*
X146445000Y-109816464D01*
X146445000Y-106083536D01*
X146618094Y-106011838D01*
X146897512Y-105825137D01*
X147135137Y-105587512D01*
X147321838Y-105308094D01*
X147450440Y-104997622D01*
X147516000Y-104668026D01*
X147516000Y-104331974D01*
X148704000Y-104331974D01*
X148704000Y-104668026D01*
X148769560Y-104997622D01*
X148898162Y-105308094D01*
X149084863Y-105587512D01*
X149322488Y-105825137D01*
X149601906Y-106011838D01*
X149912378Y-106140440D01*
X150241974Y-106206000D01*
X150578026Y-106206000D01*
X150907622Y-106140440D01*
X151218094Y-106011838D01*
X151497512Y-105825137D01*
X151735137Y-105587512D01*
X151921838Y-105308094D01*
X152050440Y-104997622D01*
X152116000Y-104668026D01*
X152116000Y-104331974D01*
X152050440Y-104002378D01*
X152026628Y-103944889D01*
X155499000Y-103944889D01*
X155499000Y-104335111D01*
X155575129Y-104717836D01*
X155724461Y-105078355D01*
X155941257Y-105402814D01*
X156217186Y-105678743D01*
X156541645Y-105895539D01*
X156902164Y-106044871D01*
X157284889Y-106121000D01*
X157675111Y-106121000D01*
X158057836Y-106044871D01*
X158418355Y-105895539D01*
X158742814Y-105678743D01*
X159018743Y-105402814D01*
X159235539Y-105078355D01*
X159384871Y-104717836D01*
X159461000Y-104335111D01*
X159461000Y-103944889D01*
X159384871Y-103562164D01*
X159235539Y-103201645D01*
X159018743Y-102877186D01*
X158742814Y-102601257D01*
X158418355Y-102384461D01*
X158057836Y-102235129D01*
X157675111Y-102159000D01*
X157284889Y-102159000D01*
X156902164Y-102235129D01*
X156541645Y-102384461D01*
X156217186Y-102601257D01*
X155941257Y-102877186D01*
X155724461Y-103201645D01*
X155575129Y-103562164D01*
X155499000Y-103944889D01*
X152026628Y-103944889D01*
X151921838Y-103691906D01*
X151735137Y-103412488D01*
X151497512Y-103174863D01*
X151218094Y-102988162D01*
X150907622Y-102859560D01*
X150578026Y-102794000D01*
X150241974Y-102794000D01*
X149912378Y-102859560D01*
X149601906Y-102988162D01*
X149322488Y-103174863D01*
X149084863Y-103412488D01*
X148898162Y-103691906D01*
X148769560Y-104002378D01*
X148704000Y-104331974D01*
X147516000Y-104331974D01*
X147450440Y-104002378D01*
X147321838Y-103691906D01*
X147135137Y-103412488D01*
X146897512Y-103174863D01*
X146618094Y-102988162D01*
X146307622Y-102859560D01*
X145978026Y-102794000D01*
X145641974Y-102794000D01*
X145312378Y-102859560D01*
X145001906Y-102988162D01*
X144722488Y-103174863D01*
X144484863Y-103412488D01*
X144298162Y-103691906D01*
X144169560Y-104002378D01*
X144104000Y-104331974D01*
X144104000Y-104668026D01*
X144169560Y-104997622D01*
X144298162Y-105308094D01*
X144484863Y-105587512D01*
X144722488Y-105825137D01*
X145001906Y-106011838D01*
X145175000Y-106083536D01*
X145175001Y-109816464D01*
X145001906Y-109888162D01*
X144722488Y-110074863D01*
X144484863Y-110312488D01*
X144298162Y-110591906D01*
X144169560Y-110902378D01*
X144104000Y-111231974D01*
X144104000Y-111568026D01*
X144169560Y-111897622D01*
X144241258Y-112070717D01*
X141305046Y-115006930D01*
X141280816Y-115026815D01*
X141260932Y-115051044D01*
X141201463Y-115123507D01*
X141142498Y-115233821D01*
X141135680Y-115256299D01*
X141110506Y-115339289D01*
X141106189Y-115353519D01*
X141093929Y-115478000D01*
X141097001Y-115509191D01*
X141097000Y-118829605D01*
X141080927Y-118845678D01*
X140989197Y-118982963D01*
X140926011Y-119135506D01*
X140893800Y-119297444D01*
X140893800Y-119462556D01*
X140926011Y-119624494D01*
X140989197Y-119777037D01*
X141080927Y-119914322D01*
X141197678Y-120031073D01*
X141334963Y-120122803D01*
X141487506Y-120185989D01*
X141649444Y-120218200D01*
X141814556Y-120218200D01*
X141976494Y-120185989D01*
X142129037Y-120122803D01*
X142189202Y-120082603D01*
X142189202Y-121887377D01*
X141974633Y-122101947D01*
X141974628Y-122101951D01*
X141972603Y-122103976D01*
X141941556Y-122097800D01*
X141776444Y-122097800D01*
X141614506Y-122130011D01*
X141461963Y-122193197D01*
X141324678Y-122284927D01*
X141207927Y-122401678D01*
X141116197Y-122538963D01*
X141053011Y-122691506D01*
X141020800Y-122853444D01*
X141020800Y-123018556D01*
X141053011Y-123180494D01*
X141116197Y-123333037D01*
X141207927Y-123470322D01*
X141224592Y-123486987D01*
X133785779Y-130925801D01*
X133591318Y-130866812D01*
X133410472Y-130849000D01*
X133289528Y-130849000D01*
X133108682Y-130866812D01*
X132876637Y-130937202D01*
X132662784Y-131051509D01*
X132475340Y-131205340D01*
X132321509Y-131392784D01*
X132207202Y-131606637D01*
X132136812Y-131838682D01*
X132113044Y-132080000D01*
X132136812Y-132321318D01*
X132207202Y-132553363D01*
X132321509Y-132767216D01*
X132466592Y-132944000D01*
X131693408Y-132944000D01*
X131838491Y-132767216D01*
X131952798Y-132553363D01*
X132023188Y-132321318D01*
X132046956Y-132080000D01*
X132023188Y-131838682D01*
X131952798Y-131606637D01*
X131838491Y-131392784D01*
X131684660Y-131205340D01*
X131497216Y-131051509D01*
X131283363Y-130937202D01*
X131051318Y-130866812D01*
X130870472Y-130849000D01*
X130749528Y-130849000D01*
X130568682Y-130866812D01*
X130336637Y-130937202D01*
X130122784Y-131051509D01*
X129935340Y-131205340D01*
X129781509Y-131392784D01*
X129667202Y-131606637D01*
X129596812Y-131838682D01*
X129573044Y-132080000D01*
X129596812Y-132321318D01*
X129667202Y-132553363D01*
X129781509Y-132767216D01*
X129926592Y-132944000D01*
X129501464Y-132944000D01*
X129502843Y-132930000D01*
X129502843Y-131230000D01*
X129495487Y-131155311D01*
X129473701Y-131083492D01*
X129438322Y-131017304D01*
X129390711Y-130959289D01*
X129332696Y-130911678D01*
X129266508Y-130876299D01*
X129194689Y-130854513D01*
X129120000Y-130847157D01*
X127420000Y-130847157D01*
X127406000Y-130848536D01*
X127406000Y-127088843D01*
X134874000Y-127088843D01*
X134892713Y-127087000D01*
X135157754Y-127087000D01*
X135714357Y-126976285D01*
X136238665Y-126759109D01*
X136710530Y-126443819D01*
X137111819Y-126042530D01*
X137427109Y-125570665D01*
X137644285Y-125046357D01*
X137755000Y-124489754D01*
X137755000Y-123922246D01*
X137644285Y-123365643D01*
X137427109Y-122841335D01*
X137111819Y-122369470D01*
X136710530Y-121968181D01*
X136238665Y-121652891D01*
X135714357Y-121435715D01*
X135157754Y-121325000D01*
X134892713Y-121325000D01*
X134874000Y-121323157D01*
X127406000Y-121323157D01*
X127406000Y-120992843D01*
X134874000Y-120992843D01*
X134892713Y-120991000D01*
X135157754Y-120991000D01*
X135714357Y-120880285D01*
X136238665Y-120663109D01*
X136710530Y-120347819D01*
X137111819Y-119946530D01*
X137427109Y-119474665D01*
X137644285Y-118950357D01*
X137755000Y-118393754D01*
X137755000Y-117826246D01*
X137644285Y-117269643D01*
X137427109Y-116745335D01*
X137111819Y-116273470D01*
X136710530Y-115872181D01*
X136238665Y-115556891D01*
X135714357Y-115339715D01*
X135157754Y-115229000D01*
X134892713Y-115229000D01*
X134874000Y-115227157D01*
X127406000Y-115227157D01*
X127406000Y-103944889D01*
X127559000Y-103944889D01*
X127559000Y-104335111D01*
X127635129Y-104717836D01*
X127784461Y-105078355D01*
X128001257Y-105402814D01*
X128277186Y-105678743D01*
X128601645Y-105895539D01*
X128962164Y-106044871D01*
X129344889Y-106121000D01*
X129735111Y-106121000D01*
X130117836Y-106044871D01*
X130478355Y-105895539D01*
X130802814Y-105678743D01*
X131078743Y-105402814D01*
X131295539Y-105078355D01*
X131444871Y-104717836D01*
X131521000Y-104335111D01*
X131521000Y-103944889D01*
X131444871Y-103562164D01*
X131295539Y-103201645D01*
X131277736Y-103175000D01*
X134902157Y-103175000D01*
X134902157Y-105825000D01*
X134909513Y-105899689D01*
X134931299Y-105971508D01*
X134966678Y-106037696D01*
X135014289Y-106095711D01*
X135072304Y-106143322D01*
X135138492Y-106178701D01*
X135210311Y-106200487D01*
X135285000Y-106207843D01*
X135975000Y-106207843D01*
X135975001Y-109816464D01*
X135801906Y-109888162D01*
X135522488Y-110074863D01*
X135284863Y-110312488D01*
X135098162Y-110591906D01*
X134969560Y-110902378D01*
X134904000Y-111231974D01*
X134904000Y-111568026D01*
X134969560Y-111897622D01*
X135098162Y-112208094D01*
X135284863Y-112487512D01*
X135522488Y-112725137D01*
X135801906Y-112911838D01*
X136112378Y-113040440D01*
X136441974Y-113106000D01*
X136778026Y-113106000D01*
X137107622Y-113040440D01*
X137280717Y-112968742D01*
X138049001Y-113737026D01*
X138049000Y-122893605D01*
X138032927Y-122909678D01*
X137941197Y-123046963D01*
X137878011Y-123199506D01*
X137845800Y-123361444D01*
X137845800Y-123526556D01*
X137878011Y-123688494D01*
X137941197Y-123841037D01*
X138032927Y-123978322D01*
X138149678Y-124095073D01*
X138286963Y-124186803D01*
X138439506Y-124249989D01*
X138601444Y-124282200D01*
X138766556Y-124282200D01*
X138928494Y-124249989D01*
X139081037Y-124186803D01*
X139218322Y-124095073D01*
X139335073Y-123978322D01*
X139426803Y-123841037D01*
X139489989Y-123688494D01*
X139522200Y-123526556D01*
X139522200Y-123361444D01*
X139489989Y-123199506D01*
X139426803Y-123046963D01*
X139335073Y-122909678D01*
X139319000Y-122893605D01*
X139319000Y-113505181D01*
X139322071Y-113474000D01*
X139319000Y-113442819D01*
X139319000Y-113442808D01*
X139309812Y-113349518D01*
X139273502Y-113229820D01*
X139214538Y-113119506D01*
X139155068Y-113047043D01*
X139135185Y-113022815D01*
X139110955Y-113002930D01*
X138178742Y-112070717D01*
X138250440Y-111897622D01*
X138316000Y-111568026D01*
X138316000Y-111231974D01*
X138250440Y-110902378D01*
X138121838Y-110591906D01*
X137935137Y-110312488D01*
X137697512Y-110074863D01*
X137418094Y-109888162D01*
X137245000Y-109816464D01*
X137245000Y-106207843D01*
X137935000Y-106207843D01*
X138009689Y-106200487D01*
X138081508Y-106178701D01*
X138147696Y-106143322D01*
X138205711Y-106095711D01*
X138253322Y-106037696D01*
X138288701Y-105971508D01*
X138310487Y-105899689D01*
X138317843Y-105825000D01*
X138317843Y-104331974D01*
X139504000Y-104331974D01*
X139504000Y-104668026D01*
X139569560Y-104997622D01*
X139698162Y-105308094D01*
X139884863Y-105587512D01*
X140122488Y-105825137D01*
X140401906Y-106011838D01*
X140575001Y-106083536D01*
X140575001Y-106342631D01*
X140575000Y-106342641D01*
X140575001Y-109816464D01*
X140401906Y-109888162D01*
X140122488Y-110074863D01*
X139884863Y-110312488D01*
X139698162Y-110591906D01*
X139569560Y-110902378D01*
X139504000Y-111231974D01*
X139504000Y-111568026D01*
X139569560Y-111897622D01*
X139698162Y-112208094D01*
X139884863Y-112487512D01*
X140122488Y-112725137D01*
X140401906Y-112911838D01*
X140712378Y-113040440D01*
X141041974Y-113106000D01*
X141378026Y-113106000D01*
X141707622Y-113040440D01*
X142018094Y-112911838D01*
X142297512Y-112725137D01*
X142535137Y-112487512D01*
X142721838Y-112208094D01*
X142850440Y-111897622D01*
X142916000Y-111568026D01*
X142916000Y-111231974D01*
X142850440Y-110902378D01*
X142721838Y-110591906D01*
X142535137Y-110312488D01*
X142297512Y-110074863D01*
X142018094Y-109888162D01*
X141845000Y-109816464D01*
X141845000Y-106083536D01*
X142018094Y-106011838D01*
X142297512Y-105825137D01*
X142535137Y-105587512D01*
X142721838Y-105308094D01*
X142850440Y-104997622D01*
X142916000Y-104668026D01*
X142916000Y-104331974D01*
X142850440Y-104002378D01*
X142721838Y-103691906D01*
X142535137Y-103412488D01*
X142297512Y-103174863D01*
X142018094Y-102988162D01*
X141707622Y-102859560D01*
X141378026Y-102794000D01*
X141041974Y-102794000D01*
X140712378Y-102859560D01*
X140401906Y-102988162D01*
X140122488Y-103174863D01*
X139884863Y-103412488D01*
X139698162Y-103691906D01*
X139569560Y-104002378D01*
X139504000Y-104331974D01*
X138317843Y-104331974D01*
X138317843Y-103175000D01*
X138310487Y-103100311D01*
X138288701Y-103028492D01*
X138253322Y-102962304D01*
X138205711Y-102904289D01*
X138147696Y-102856678D01*
X138081508Y-102821299D01*
X138009689Y-102799513D01*
X137935000Y-102792157D01*
X135285000Y-102792157D01*
X135210311Y-102799513D01*
X135138492Y-102821299D01*
X135072304Y-102856678D01*
X135014289Y-102904289D01*
X134966678Y-102962304D01*
X134931299Y-103028492D01*
X134909513Y-103100311D01*
X134902157Y-103175000D01*
X131277736Y-103175000D01*
X131078743Y-102877186D01*
X130802814Y-102601257D01*
X130478355Y-102384461D01*
X130117836Y-102235129D01*
X129735111Y-102159000D01*
X129344889Y-102159000D01*
X128962164Y-102235129D01*
X128601645Y-102384461D01*
X128277186Y-102601257D01*
X128001257Y-102877186D01*
X127784461Y-103201645D01*
X127635129Y-103562164D01*
X127559000Y-103944889D01*
X127406000Y-103944889D01*
X127406000Y-102006000D01*
X159614000Y-102006000D01*
X159614000Y-115227157D01*
X159614000Y-115227157D01*
G37*
X159614000Y-115227157D02*
X152146000Y-115227157D01*
X152127287Y-115229000D01*
X151862246Y-115229000D01*
X151305643Y-115339715D01*
X150781335Y-115556891D01*
X150499576Y-115745156D01*
X150490855Y-115736435D01*
X150474948Y-115717052D01*
X150397595Y-115653571D01*
X150309343Y-115606399D01*
X150213585Y-115577351D01*
X150138947Y-115570000D01*
X150138944Y-115570000D01*
X150114000Y-115567543D01*
X150089056Y-115570000D01*
X144042944Y-115570000D01*
X144018000Y-115567543D01*
X143993056Y-115570000D01*
X143993053Y-115570000D01*
X143918415Y-115577351D01*
X143822657Y-115606399D01*
X143734405Y-115653571D01*
X143657052Y-115717052D01*
X143641145Y-115736435D01*
X142367000Y-117010580D01*
X142367000Y-115741024D01*
X145139283Y-112968742D01*
X145312378Y-113040440D01*
X145641974Y-113106000D01*
X145978026Y-113106000D01*
X146307622Y-113040440D01*
X146618094Y-112911838D01*
X146897512Y-112725137D01*
X147135137Y-112487512D01*
X147321838Y-112208094D01*
X147450440Y-111897622D01*
X147516000Y-111568026D01*
X147516000Y-111231974D01*
X148704000Y-111231974D01*
X148704000Y-111568026D01*
X148769560Y-111897622D01*
X148898162Y-112208094D01*
X149084863Y-112487512D01*
X149322488Y-112725137D01*
X149601906Y-112911838D01*
X149912378Y-113040440D01*
X150241974Y-113106000D01*
X150578026Y-113106000D01*
X150907622Y-113040440D01*
X151218094Y-112911838D01*
X151497512Y-112725137D01*
X151735137Y-112487512D01*
X151921838Y-112208094D01*
X152050440Y-111897622D01*
X152116000Y-111568026D01*
X152116000Y-111231974D01*
X152050440Y-110902378D01*
X151921838Y-110591906D01*
X151735137Y-110312488D01*
X151497512Y-110074863D01*
X151218094Y-109888162D01*
X150907622Y-109759560D01*
X150578026Y-109694000D01*
X150241974Y-109694000D01*
X149912378Y-109759560D01*
X149601906Y-109888162D01*
X149322488Y-110074863D01*
X149084863Y-110312488D01*
X148898162Y-110591906D01*
X148769560Y-110902378D01*
X148704000Y-111231974D01*
X147516000Y-111231974D01*
X147450440Y-110902378D01*
X147321838Y-110591906D01*
X147135137Y-110312488D01*
X146897512Y-110074863D01*
X146618094Y-109888162D01*
X146445000Y-109816464D01*
X146445000Y-106083536D01*
X146618094Y-106011838D01*
X146897512Y-105825137D01*
X147135137Y-105587512D01*
X147321838Y-105308094D01*
X147450440Y-104997622D01*
X147516000Y-104668026D01*
X147516000Y-104331974D01*
X148704000Y-104331974D01*
X148704000Y-104668026D01*
X148769560Y-104997622D01*
X148898162Y-105308094D01*
X149084863Y-105587512D01*
X149322488Y-105825137D01*
X149601906Y-106011838D01*
X149912378Y-106140440D01*
X150241974Y-106206000D01*
X150578026Y-106206000D01*
X150907622Y-106140440D01*
X151218094Y-106011838D01*
X151497512Y-105825137D01*
X151735137Y-105587512D01*
X151921838Y-105308094D01*
X152050440Y-104997622D01*
X152116000Y-104668026D01*
X152116000Y-104331974D01*
X152050440Y-104002378D01*
X152026628Y-103944889D01*
X155499000Y-103944889D01*
X155499000Y-104335111D01*
X155575129Y-104717836D01*
X155724461Y-105078355D01*
X155941257Y-105402814D01*
X156217186Y-105678743D01*
X156541645Y-105895539D01*
X156902164Y-106044871D01*
X157284889Y-106121000D01*
X157675111Y-106121000D01*
X158057836Y-106044871D01*
X158418355Y-105895539D01*
X158742814Y-105678743D01*
X159018743Y-105402814D01*
X159235539Y-105078355D01*
X159384871Y-104717836D01*
X159461000Y-104335111D01*
X159461000Y-103944889D01*
X159384871Y-103562164D01*
X159235539Y-103201645D01*
X159018743Y-102877186D01*
X158742814Y-102601257D01*
X158418355Y-102384461D01*
X158057836Y-102235129D01*
X157675111Y-102159000D01*
X157284889Y-102159000D01*
X156902164Y-102235129D01*
X156541645Y-102384461D01*
X156217186Y-102601257D01*
X155941257Y-102877186D01*
X155724461Y-103201645D01*
X155575129Y-103562164D01*
X155499000Y-103944889D01*
X152026628Y-103944889D01*
X151921838Y-103691906D01*
X151735137Y-103412488D01*
X151497512Y-103174863D01*
X151218094Y-102988162D01*
X150907622Y-102859560D01*
X150578026Y-102794000D01*
X150241974Y-102794000D01*
X149912378Y-102859560D01*
X149601906Y-102988162D01*
X149322488Y-103174863D01*
X149084863Y-103412488D01*
X148898162Y-103691906D01*
X148769560Y-104002378D01*
X148704000Y-104331974D01*
X147516000Y-104331974D01*
X147450440Y-104002378D01*
X147321838Y-103691906D01*
X147135137Y-103412488D01*
X146897512Y-103174863D01*
X146618094Y-102988162D01*
X146307622Y-102859560D01*
X145978026Y-102794000D01*
X145641974Y-102794000D01*
X145312378Y-102859560D01*
X145001906Y-102988162D01*
X144722488Y-103174863D01*
X144484863Y-103412488D01*
X144298162Y-103691906D01*
X144169560Y-104002378D01*
X144104000Y-104331974D01*
X144104000Y-104668026D01*
X144169560Y-104997622D01*
X144298162Y-105308094D01*
X144484863Y-105587512D01*
X144722488Y-105825137D01*
X145001906Y-106011838D01*
X145175000Y-106083536D01*
X145175001Y-109816464D01*
X145001906Y-109888162D01*
X144722488Y-110074863D01*
X144484863Y-110312488D01*
X144298162Y-110591906D01*
X144169560Y-110902378D01*
X144104000Y-111231974D01*
X144104000Y-111568026D01*
X144169560Y-111897622D01*
X144241258Y-112070717D01*
X141305046Y-115006930D01*
X141280816Y-115026815D01*
X141260932Y-115051044D01*
X141201463Y-115123507D01*
X141142498Y-115233821D01*
X141135680Y-115256299D01*
X141110506Y-115339289D01*
X141106189Y-115353519D01*
X141093929Y-115478000D01*
X141097001Y-115509191D01*
X141097000Y-118829605D01*
X141080927Y-118845678D01*
X140989197Y-118982963D01*
X140926011Y-119135506D01*
X140893800Y-119297444D01*
X140893800Y-119462556D01*
X140926011Y-119624494D01*
X140989197Y-119777037D01*
X141080927Y-119914322D01*
X141197678Y-120031073D01*
X141334963Y-120122803D01*
X141487506Y-120185989D01*
X141649444Y-120218200D01*
X141814556Y-120218200D01*
X141976494Y-120185989D01*
X142129037Y-120122803D01*
X142189202Y-120082603D01*
X142189202Y-121887377D01*
X141974633Y-122101947D01*
X141974628Y-122101951D01*
X141972603Y-122103976D01*
X141941556Y-122097800D01*
X141776444Y-122097800D01*
X141614506Y-122130011D01*
X141461963Y-122193197D01*
X141324678Y-122284927D01*
X141207927Y-122401678D01*
X141116197Y-122538963D01*
X141053011Y-122691506D01*
X141020800Y-122853444D01*
X141020800Y-123018556D01*
X141053011Y-123180494D01*
X141116197Y-123333037D01*
X141207927Y-123470322D01*
X141224592Y-123486987D01*
X133785779Y-130925801D01*
X133591318Y-130866812D01*
X133410472Y-130849000D01*
X133289528Y-130849000D01*
X133108682Y-130866812D01*
X132876637Y-130937202D01*
X132662784Y-131051509D01*
X132475340Y-131205340D01*
X132321509Y-131392784D01*
X132207202Y-131606637D01*
X132136812Y-131838682D01*
X132113044Y-132080000D01*
X132136812Y-132321318D01*
X132207202Y-132553363D01*
X132321509Y-132767216D01*
X132466592Y-132944000D01*
X131693408Y-132944000D01*
X131838491Y-132767216D01*
X131952798Y-132553363D01*
X132023188Y-132321318D01*
X132046956Y-132080000D01*
X132023188Y-131838682D01*
X131952798Y-131606637D01*
X131838491Y-131392784D01*
X131684660Y-131205340D01*
X131497216Y-131051509D01*
X131283363Y-130937202D01*
X131051318Y-130866812D01*
X130870472Y-130849000D01*
X130749528Y-130849000D01*
X130568682Y-130866812D01*
X130336637Y-130937202D01*
X130122784Y-131051509D01*
X129935340Y-131205340D01*
X129781509Y-131392784D01*
X129667202Y-131606637D01*
X129596812Y-131838682D01*
X129573044Y-132080000D01*
X129596812Y-132321318D01*
X129667202Y-132553363D01*
X129781509Y-132767216D01*
X129926592Y-132944000D01*
X129501464Y-132944000D01*
X129502843Y-132930000D01*
X129502843Y-131230000D01*
X129495487Y-131155311D01*
X129473701Y-131083492D01*
X129438322Y-131017304D01*
X129390711Y-130959289D01*
X129332696Y-130911678D01*
X129266508Y-130876299D01*
X129194689Y-130854513D01*
X129120000Y-130847157D01*
X127420000Y-130847157D01*
X127406000Y-130848536D01*
X127406000Y-127088843D01*
X134874000Y-127088843D01*
X134892713Y-127087000D01*
X135157754Y-127087000D01*
X135714357Y-126976285D01*
X136238665Y-126759109D01*
X136710530Y-126443819D01*
X137111819Y-126042530D01*
X137427109Y-125570665D01*
X137644285Y-125046357D01*
X137755000Y-124489754D01*
X137755000Y-123922246D01*
X137644285Y-123365643D01*
X137427109Y-122841335D01*
X137111819Y-122369470D01*
X136710530Y-121968181D01*
X136238665Y-121652891D01*
X135714357Y-121435715D01*
X135157754Y-121325000D01*
X134892713Y-121325000D01*
X134874000Y-121323157D01*
X127406000Y-121323157D01*
X127406000Y-120992843D01*
X134874000Y-120992843D01*
X134892713Y-120991000D01*
X135157754Y-120991000D01*
X135714357Y-120880285D01*
X136238665Y-120663109D01*
X136710530Y-120347819D01*
X137111819Y-119946530D01*
X137427109Y-119474665D01*
X137644285Y-118950357D01*
X137755000Y-118393754D01*
X137755000Y-117826246D01*
X137644285Y-117269643D01*
X137427109Y-116745335D01*
X137111819Y-116273470D01*
X136710530Y-115872181D01*
X136238665Y-115556891D01*
X135714357Y-115339715D01*
X135157754Y-115229000D01*
X134892713Y-115229000D01*
X134874000Y-115227157D01*
X127406000Y-115227157D01*
X127406000Y-103944889D01*
X127559000Y-103944889D01*
X127559000Y-104335111D01*
X127635129Y-104717836D01*
X127784461Y-105078355D01*
X128001257Y-105402814D01*
X128277186Y-105678743D01*
X128601645Y-105895539D01*
X128962164Y-106044871D01*
X129344889Y-106121000D01*
X129735111Y-106121000D01*
X130117836Y-106044871D01*
X130478355Y-105895539D01*
X130802814Y-105678743D01*
X131078743Y-105402814D01*
X131295539Y-105078355D01*
X131444871Y-104717836D01*
X131521000Y-104335111D01*
X131521000Y-103944889D01*
X131444871Y-103562164D01*
X131295539Y-103201645D01*
X131277736Y-103175000D01*
X134902157Y-103175000D01*
X134902157Y-105825000D01*
X134909513Y-105899689D01*
X134931299Y-105971508D01*
X134966678Y-106037696D01*
X135014289Y-106095711D01*
X135072304Y-106143322D01*
X135138492Y-106178701D01*
X135210311Y-106200487D01*
X135285000Y-106207843D01*
X135975000Y-106207843D01*
X135975001Y-109816464D01*
X135801906Y-109888162D01*
X135522488Y-110074863D01*
X135284863Y-110312488D01*
X135098162Y-110591906D01*
X134969560Y-110902378D01*
X134904000Y-111231974D01*
X134904000Y-111568026D01*
X134969560Y-111897622D01*
X135098162Y-112208094D01*
X135284863Y-112487512D01*
X135522488Y-112725137D01*
X135801906Y-112911838D01*
X136112378Y-113040440D01*
X136441974Y-113106000D01*
X136778026Y-113106000D01*
X137107622Y-113040440D01*
X137280717Y-112968742D01*
X138049001Y-113737026D01*
X138049000Y-122893605D01*
X138032927Y-122909678D01*
X137941197Y-123046963D01*
X137878011Y-123199506D01*
X137845800Y-123361444D01*
X137845800Y-123526556D01*
X137878011Y-123688494D01*
X137941197Y-123841037D01*
X138032927Y-123978322D01*
X138149678Y-124095073D01*
X138286963Y-124186803D01*
X138439506Y-124249989D01*
X138601444Y-124282200D01*
X138766556Y-124282200D01*
X138928494Y-124249989D01*
X139081037Y-124186803D01*
X139218322Y-124095073D01*
X139335073Y-123978322D01*
X139426803Y-123841037D01*
X139489989Y-123688494D01*
X139522200Y-123526556D01*
X139522200Y-123361444D01*
X139489989Y-123199506D01*
X139426803Y-123046963D01*
X139335073Y-122909678D01*
X139319000Y-122893605D01*
X139319000Y-113505181D01*
X139322071Y-113474000D01*
X139319000Y-113442819D01*
X139319000Y-113442808D01*
X139309812Y-113349518D01*
X139273502Y-113229820D01*
X139214538Y-113119506D01*
X139155068Y-113047043D01*
X139135185Y-113022815D01*
X139110955Y-113002930D01*
X138178742Y-112070717D01*
X138250440Y-111897622D01*
X138316000Y-111568026D01*
X138316000Y-111231974D01*
X138250440Y-110902378D01*
X138121838Y-110591906D01*
X137935137Y-110312488D01*
X137697512Y-110074863D01*
X137418094Y-109888162D01*
X137245000Y-109816464D01*
X137245000Y-106207843D01*
X137935000Y-106207843D01*
X138009689Y-106200487D01*
X138081508Y-106178701D01*
X138147696Y-106143322D01*
X138205711Y-106095711D01*
X138253322Y-106037696D01*
X138288701Y-105971508D01*
X138310487Y-105899689D01*
X138317843Y-105825000D01*
X138317843Y-104331974D01*
X139504000Y-104331974D01*
X139504000Y-104668026D01*
X139569560Y-104997622D01*
X139698162Y-105308094D01*
X139884863Y-105587512D01*
X140122488Y-105825137D01*
X140401906Y-106011838D01*
X140575001Y-106083536D01*
X140575001Y-106342631D01*
X140575000Y-106342641D01*
X140575001Y-109816464D01*
X140401906Y-109888162D01*
X140122488Y-110074863D01*
X139884863Y-110312488D01*
X139698162Y-110591906D01*
X139569560Y-110902378D01*
X139504000Y-111231974D01*
X139504000Y-111568026D01*
X139569560Y-111897622D01*
X139698162Y-112208094D01*
X139884863Y-112487512D01*
X140122488Y-112725137D01*
X140401906Y-112911838D01*
X140712378Y-113040440D01*
X141041974Y-113106000D01*
X141378026Y-113106000D01*
X141707622Y-113040440D01*
X142018094Y-112911838D01*
X142297512Y-112725137D01*
X142535137Y-112487512D01*
X142721838Y-112208094D01*
X142850440Y-111897622D01*
X142916000Y-111568026D01*
X142916000Y-111231974D01*
X142850440Y-110902378D01*
X142721838Y-110591906D01*
X142535137Y-110312488D01*
X142297512Y-110074863D01*
X142018094Y-109888162D01*
X141845000Y-109816464D01*
X141845000Y-106083536D01*
X142018094Y-106011838D01*
X142297512Y-105825137D01*
X142535137Y-105587512D01*
X142721838Y-105308094D01*
X142850440Y-104997622D01*
X142916000Y-104668026D01*
X142916000Y-104331974D01*
X142850440Y-104002378D01*
X142721838Y-103691906D01*
X142535137Y-103412488D01*
X142297512Y-103174863D01*
X142018094Y-102988162D01*
X141707622Y-102859560D01*
X141378026Y-102794000D01*
X141041974Y-102794000D01*
X140712378Y-102859560D01*
X140401906Y-102988162D01*
X140122488Y-103174863D01*
X139884863Y-103412488D01*
X139698162Y-103691906D01*
X139569560Y-104002378D01*
X139504000Y-104331974D01*
X138317843Y-104331974D01*
X138317843Y-103175000D01*
X138310487Y-103100311D01*
X138288701Y-103028492D01*
X138253322Y-102962304D01*
X138205711Y-102904289D01*
X138147696Y-102856678D01*
X138081508Y-102821299D01*
X138009689Y-102799513D01*
X137935000Y-102792157D01*
X135285000Y-102792157D01*
X135210311Y-102799513D01*
X135138492Y-102821299D01*
X135072304Y-102856678D01*
X135014289Y-102904289D01*
X134966678Y-102962304D01*
X134931299Y-103028492D01*
X134909513Y-103100311D01*
X134902157Y-103175000D01*
X131277736Y-103175000D01*
X131078743Y-102877186D01*
X130802814Y-102601257D01*
X130478355Y-102384461D01*
X130117836Y-102235129D01*
X129735111Y-102159000D01*
X129344889Y-102159000D01*
X128962164Y-102235129D01*
X128601645Y-102384461D01*
X128277186Y-102601257D01*
X128001257Y-102877186D01*
X127784461Y-103201645D01*
X127635129Y-103562164D01*
X127559000Y-103944889D01*
X127406000Y-103944889D01*
X127406000Y-102006000D01*
X159614000Y-102006000D01*
X159614000Y-115227157D01*
G36*
X142875000Y-123658146D02*
G01*
X138088430Y-128444716D01*
X138069053Y-128460618D01*
X138053151Y-128479995D01*
X138053150Y-128479996D01*
X138005571Y-128537971D01*
X137979098Y-128587500D01*
X137958400Y-128626223D01*
X137943043Y-128676850D01*
X137929352Y-128721982D01*
X137919543Y-128821566D01*
X137922001Y-128846520D01*
X137922000Y-130955716D01*
X137742784Y-131051509D01*
X137555340Y-131205340D01*
X137401509Y-131392784D01*
X137288983Y-131603305D01*
X137234157Y-131448748D01*
X137085178Y-131198645D01*
X136890269Y-130982412D01*
X136656920Y-130808359D01*
X136394099Y-130683175D01*
X136246890Y-130638524D01*
X136017000Y-130759845D01*
X136017000Y-131953000D01*
X136037000Y-131953000D01*
X136037000Y-132207000D01*
X136017000Y-132207000D01*
X136017000Y-132227000D01*
X135763000Y-132227000D01*
X135763000Y-132207000D01*
X135743000Y-132207000D01*
X135743000Y-131953000D01*
X135763000Y-131953000D01*
X135763000Y-130759845D01*
X135533110Y-130638524D01*
X135499790Y-130648631D01*
X142200571Y-123947850D01*
X142219948Y-123931948D01*
X142250118Y-123895185D01*
X142283429Y-123854596D01*
X142330600Y-123766345D01*
X142330601Y-123766342D01*
X142359649Y-123670585D01*
X142366081Y-123605274D01*
X142393322Y-123587073D01*
X142510073Y-123470322D01*
X142601803Y-123333037D01*
X142664989Y-123180494D01*
X142697200Y-123018556D01*
X142697200Y-122853444D01*
X142691024Y-122822397D01*
X142693049Y-122820372D01*
X142693053Y-122820367D01*
X142875000Y-122638420D01*
X142875000Y-123658146D01*
X142875000Y-123658146D01*
G37*
X142875000Y-123658146D02*
X138088430Y-128444716D01*
X138069053Y-128460618D01*
X138053151Y-128479995D01*
X138053150Y-128479996D01*
X138005571Y-128537971D01*
X137979098Y-128587500D01*
X137958400Y-128626223D01*
X137943043Y-128676850D01*
X137929352Y-128721982D01*
X137919543Y-128821566D01*
X137922001Y-128846520D01*
X137922000Y-130955716D01*
X137742784Y-131051509D01*
X137555340Y-131205340D01*
X137401509Y-131392784D01*
X137288983Y-131603305D01*
X137234157Y-131448748D01*
X137085178Y-131198645D01*
X136890269Y-130982412D01*
X136656920Y-130808359D01*
X136394099Y-130683175D01*
X136246890Y-130638524D01*
X136017000Y-130759845D01*
X136017000Y-131953000D01*
X136037000Y-131953000D01*
X136037000Y-132207000D01*
X136017000Y-132207000D01*
X136017000Y-132227000D01*
X135763000Y-132227000D01*
X135763000Y-132207000D01*
X135743000Y-132207000D01*
X135743000Y-131953000D01*
X135763000Y-131953000D01*
X135763000Y-130759845D01*
X135533110Y-130638524D01*
X135499790Y-130648631D01*
X142200571Y-123947850D01*
X142219948Y-123931948D01*
X142250118Y-123895185D01*
X142283429Y-123854596D01*
X142330600Y-123766345D01*
X142330601Y-123766342D01*
X142359649Y-123670585D01*
X142366081Y-123605274D01*
X142393322Y-123587073D01*
X142510073Y-123470322D01*
X142601803Y-123333037D01*
X142664989Y-123180494D01*
X142697200Y-123018556D01*
X142697200Y-122853444D01*
X142691024Y-122822397D01*
X142693049Y-122820372D01*
X142693053Y-122820367D01*
X142875000Y-122638420D01*
X142875000Y-123658146D01*
G36*
X149592891Y-116745335D02*
G01*
X149375715Y-117269643D01*
X149265000Y-117826246D01*
X149265000Y-118393754D01*
X149375715Y-118950357D01*
X149592891Y-119474665D01*
X149908181Y-119946530D01*
X150309470Y-120347819D01*
X150781335Y-120663109D01*
X151305643Y-120880285D01*
X151862246Y-120991000D01*
X152127287Y-120991000D01*
X152146000Y-120992843D01*
X159614001Y-120992843D01*
X159614001Y-121068368D01*
X156431750Y-121071000D01*
X156273000Y-121229750D01*
X156273000Y-124079000D01*
X156293000Y-124079000D01*
X156293000Y-124333000D01*
X156273000Y-124333000D01*
X156273000Y-127182250D01*
X156431750Y-127341000D01*
X159614001Y-127343632D01*
X159614001Y-127419157D01*
X152146000Y-127419157D01*
X152127287Y-127421000D01*
X151862246Y-127421000D01*
X151305643Y-127531715D01*
X150781335Y-127748891D01*
X150499577Y-127937156D01*
X146771749Y-124209328D01*
X148995832Y-124209328D01*
X149057010Y-124823831D01*
X149236897Y-125414592D01*
X149524882Y-125953373D01*
X149942852Y-126229543D01*
X151510764Y-124661631D01*
X151510265Y-125021340D01*
X150122457Y-126409148D01*
X150398627Y-126827118D01*
X150943557Y-127117649D01*
X151534696Y-127296287D01*
X152149328Y-127356168D01*
X152271872Y-127343968D01*
X155860250Y-127341000D01*
X156019000Y-127182250D01*
X156019000Y-124333000D01*
X155999000Y-124333000D01*
X155999000Y-124079000D01*
X156019000Y-124079000D01*
X156019000Y-121229750D01*
X155860250Y-121071000D01*
X152267863Y-121068029D01*
X152142672Y-121055832D01*
X151528169Y-121117010D01*
X150937408Y-121296897D01*
X150398627Y-121584882D01*
X150122457Y-122002852D01*
X151510265Y-123390660D01*
X151510764Y-123750369D01*
X149942852Y-122182457D01*
X149524882Y-122458627D01*
X149234351Y-123003557D01*
X149055713Y-123594696D01*
X148995832Y-124209328D01*
X146771749Y-124209328D01*
X146050000Y-123487580D01*
X146050000Y-119286661D01*
X146076322Y-119269073D01*
X146193073Y-119152322D01*
X146284803Y-119015037D01*
X146347989Y-118862494D01*
X146380200Y-118700556D01*
X146380200Y-118535444D01*
X146347989Y-118373506D01*
X146284803Y-118220963D01*
X146193073Y-118083678D01*
X146076322Y-117966927D01*
X145939037Y-117875197D01*
X145786494Y-117812011D01*
X145624556Y-117779800D01*
X145459444Y-117779800D01*
X145428396Y-117785976D01*
X144902855Y-117260435D01*
X144886948Y-117241052D01*
X144809595Y-117177571D01*
X144721343Y-117130399D01*
X144625585Y-117101351D01*
X144550947Y-117094000D01*
X144550944Y-117094000D01*
X144526000Y-117091543D01*
X144501056Y-117094000D01*
X143788943Y-117094000D01*
X143763999Y-117091543D01*
X143739055Y-117094000D01*
X143739053Y-117094000D01*
X143718384Y-117096036D01*
X144228420Y-116586000D01*
X149699355Y-116586000D01*
X149592891Y-116745335D01*
X149592891Y-116745335D01*
G37*
X149592891Y-116745335D02*
X149375715Y-117269643D01*
X149265000Y-117826246D01*
X149265000Y-118393754D01*
X149375715Y-118950357D01*
X149592891Y-119474665D01*
X149908181Y-119946530D01*
X150309470Y-120347819D01*
X150781335Y-120663109D01*
X151305643Y-120880285D01*
X151862246Y-120991000D01*
X152127287Y-120991000D01*
X152146000Y-120992843D01*
X159614001Y-120992843D01*
X159614001Y-121068368D01*
X156431750Y-121071000D01*
X156273000Y-121229750D01*
X156273000Y-124079000D01*
X156293000Y-124079000D01*
X156293000Y-124333000D01*
X156273000Y-124333000D01*
X156273000Y-127182250D01*
X156431750Y-127341000D01*
X159614001Y-127343632D01*
X159614001Y-127419157D01*
X152146000Y-127419157D01*
X152127287Y-127421000D01*
X151862246Y-127421000D01*
X151305643Y-127531715D01*
X150781335Y-127748891D01*
X150499577Y-127937156D01*
X146771749Y-124209328D01*
X148995832Y-124209328D01*
X149057010Y-124823831D01*
X149236897Y-125414592D01*
X149524882Y-125953373D01*
X149942852Y-126229543D01*
X151510764Y-124661631D01*
X151510265Y-125021340D01*
X150122457Y-126409148D01*
X150398627Y-126827118D01*
X150943557Y-127117649D01*
X151534696Y-127296287D01*
X152149328Y-127356168D01*
X152271872Y-127343968D01*
X155860250Y-127341000D01*
X156019000Y-127182250D01*
X156019000Y-124333000D01*
X155999000Y-124333000D01*
X155999000Y-124079000D01*
X156019000Y-124079000D01*
X156019000Y-121229750D01*
X155860250Y-121071000D01*
X152267863Y-121068029D01*
X152142672Y-121055832D01*
X151528169Y-121117010D01*
X150937408Y-121296897D01*
X150398627Y-121584882D01*
X150122457Y-122002852D01*
X151510265Y-123390660D01*
X151510764Y-123750369D01*
X149942852Y-122182457D01*
X149524882Y-122458627D01*
X149234351Y-123003557D01*
X149055713Y-123594696D01*
X148995832Y-124209328D01*
X146771749Y-124209328D01*
X146050000Y-123487580D01*
X146050000Y-119286661D01*
X146076322Y-119269073D01*
X146193073Y-119152322D01*
X146284803Y-119015037D01*
X146347989Y-118862494D01*
X146380200Y-118700556D01*
X146380200Y-118535444D01*
X146347989Y-118373506D01*
X146284803Y-118220963D01*
X146193073Y-118083678D01*
X146076322Y-117966927D01*
X145939037Y-117875197D01*
X145786494Y-117812011D01*
X145624556Y-117779800D01*
X145459444Y-117779800D01*
X145428396Y-117785976D01*
X144902855Y-117260435D01*
X144886948Y-117241052D01*
X144809595Y-117177571D01*
X144721343Y-117130399D01*
X144625585Y-117101351D01*
X144550947Y-117094000D01*
X144550944Y-117094000D01*
X144526000Y-117091543D01*
X144501056Y-117094000D01*
X143788943Y-117094000D01*
X143763999Y-117091543D01*
X143739055Y-117094000D01*
X143739053Y-117094000D01*
X143718384Y-117096036D01*
X144228420Y-116586000D01*
X149699355Y-116586000D01*
X149592891Y-116745335D01*
M02*
