M48
; DRILL file {KiCad (5.1.0)-1} date 9/2/2019 11:35:47 PM
; FORMAT={-:-/ absolute / inch / decimal}
; #@! TF.CreationDate,2019-09-02T23:35:47-05:00
; #@! TF.GenerationSoftware,Kicad,Pcbnew,(5.1.0)-1
; #@! TF.FileFunction,Plated,1,2,PTH
FMAT,2
INCH
T1C0.0160
T2C0.0394
T3C0.0650
T4C0.1575
%
G90
G05
T1
X5.2Y-5.035
X5.2Y-5.14
X5.37Y-4.51
X5.46Y-4.86
X5.52Y-4.465
X5.58Y-4.7
X5.585Y-4.78
X5.585Y-4.84
X5.65Y-5.2
X5.68Y-4.67
X5.73Y-4.67
X5.765Y-4.51
X5.805Y-5.02
X5.865Y-5.2
T2
X5.05Y-5.2
X5.15Y-5.2
X5.25Y-5.2
X5.35Y-5.2
X5.45Y-5.2
X5.55Y-5.2
T3
X5.3783Y-4.1142
X5.3783Y-4.3858
X5.5594Y-4.1142
X5.5594Y-4.3858
X5.7406Y-4.1142
X5.7406Y-4.3858
X5.9217Y-4.1142
X5.9217Y-4.3858
T4
X5.31Y-4.65
X5.31Y-4.89
X5.99Y-4.65
X5.99Y-4.89
X5.99Y-5.13
T0
M30
